<svg width="10" height="17" viewBox="0 0 10 17" fill="none" xmlns="http://www.w3.org/2000/svg">
<path d="M5.95996 17H3.23757C2.78285 17 2.41294 16.6301 2.41294 16.1754V10.0349H0.824633C0.369883 10.0349 0 9.66483 0 9.21022V6.579C0 6.12425 0.369883 5.75437 0.824633 5.75437H2.41294V4.43673C2.41294 3.13026 2.82316 2.01875 3.59915 1.22251C4.37866 0.422676 5.46802 0 6.74947 0L8.82566 0.00338672C9.27961 0.00415039 9.6489 0.374066 9.6489 0.827986V3.27104C9.6489 3.72576 9.27911 4.09567 8.8245 4.09567L7.42661 4.09617C7.00028 4.09617 6.89171 4.18163 6.8685 4.20783C6.83025 4.25133 6.78473 4.37411 6.78473 4.71328V5.75427H8.71947C8.8651 5.75427 9.00622 5.79019 9.12747 5.85786C9.38911 6.00406 9.55174 6.28044 9.55174 6.57913L9.55071 9.21038C9.55071 9.66483 9.1808 10.0347 8.72608 10.0347H6.78469V16.1754C6.78473 16.6301 6.41471 17 5.95996 17ZM3.40953 16.0034H5.78797V9.58873C5.78797 9.28512 6.03507 9.03816 6.33854 9.03816H8.55409L8.55499 6.75103H6.33841C6.03493 6.75103 5.78797 6.50409 5.78797 6.20045V4.71332C5.78797 4.32398 5.82755 3.88118 6.12143 3.54835C6.47657 3.14603 7.03621 3.09961 7.42634 3.09961L8.65227 3.09908V0.999713L6.74867 0.996625C4.68928 0.996625 3.40956 2.31489 3.40956 4.43677V6.20042C3.40956 6.50389 3.1626 6.75099 2.85909 6.75099H0.996625V9.03812H2.85909C3.1626 9.03812 3.40956 9.28509 3.40956 9.5887L3.40953 16.0034Z" fill="black"/>
</svg>
