<svg width="14" height="14" viewBox="0 0 14 14" fill="none" xmlns="http://www.w3.org/2000/svg">
<g clip-path="url(#clip0_160_20)">
<path d="M10.2103 0H3.78967C1.70001 0 0 1.70001 0 3.78967V10.2104C0 12.3 1.70001 14 3.78967 14H10.2104C12.3 14 14 12.3 14 10.2104V3.78967C14 1.70001 12.3 0 10.2103 0ZM13.1792 10.2104C13.1792 11.8474 11.8474 13.1792 10.2103 13.1792H3.78967C2.15258 13.1792 0.820748 11.8474 0.820748 10.2104V3.78967C0.820748 2.15258 2.15258 0.820748 3.78967 0.820748H10.2104C11.8474 0.820748 13.1792 2.15258 13.1792 3.78967V10.2104Z" fill="black"/>
<path d="M6.99989 3.172C4.88909 3.172 3.17188 4.88919 3.17188 7.00002C3.17188 9.11085 4.88906 10.828 6.99989 10.828C9.11072 10.828 10.8279 9.11085 10.8279 7.00002C10.8279 4.88919 9.11072 3.172 6.99989 3.172ZM6.99989 10.0073C5.34177 10.0073 3.99263 8.65828 3.99263 7.00002C3.99263 5.34189 5.34177 3.99275 6.99989 3.99275C8.65815 3.99275 10.0072 5.34189 10.0072 7.00002C10.0072 8.65828 8.65815 10.0073 6.99989 10.0073ZM10.9195 1.8125C10.2957 1.8125 9.78832 2.31997 9.78832 2.94363C9.78832 3.56742 10.2957 4.07487 10.9195 4.07487C11.5432 4.07487 12.0507 3.56742 12.0507 2.94366C12.0507 2.31989 11.5432 1.8125 10.9195 1.8125ZM10.9195 3.25403C10.7483 3.25403 10.609 3.11475 10.609 2.94363C10.609 2.77243 10.7483 2.63325 10.9195 2.63325C11.0907 2.63325 11.2299 2.77243 11.2299 2.94363C11.2299 3.11475 11.0907 3.25403 10.9195 3.25403Z" fill="black"/>
</g>
<defs>
<clipPath id="clip0_160_20">
<rect width="14" height="14" fill="white"/>
</clipPath>
</defs>
</svg>
