<svg width="38" height="38" viewBox="0 0 38 38" fill="none" xmlns="http://www.w3.org/2000/svg">
<circle cx="19" cy="19" r="19" fill="white"/>
<g clip-path="url(#clip0_309_80)">
<rect width="16" height="16" transform="translate(11 11)" fill="white"/>
<path d="M26.996 27L27 26.9993V21.1313C27 18.2607 26.382 16.0493 23.026 16.0493C21.4127 16.0493 20.33 16.9347 19.888 17.774H19.8413V16.3173H16.6593V26.9993H19.9727V21.71C19.9727 20.3173 20.2367 18.9707 21.9613 18.9707C23.6607 18.9707 23.686 20.56 23.686 21.7993V27H26.996ZM11.264 16.318H14.5813V27H11.264V16.318ZM12.9213 11C11.8607 11 11 11.8607 11 12.9213C11 13.982 11.8607 14.8607 12.9213 14.8607C13.982 14.8607 14.8427 13.982 14.8427 12.9213C14.8423 12.4119 14.6398 11.9234 14.2795 11.5631C13.9193 11.2029 13.4308 11.0004 12.9213 11Z" fill="#4D7AAA"/>
</g>
<defs>
<clipPath id="clip0_309_80">
<rect width="16" height="16" fill="white" transform="translate(11 11)"/>
</clipPath>
</defs>
</svg>
