<svg width="15" height="15" viewBox="0 0 15 15" fill="none" xmlns="http://www.w3.org/2000/svg">
<g clip-path="url(#clip0_160_24)">
<path d="M2.025 0.125C1.47501 0.125 0.975 0.32501 0.6 0.70001C0.20001 1.1 0 1.59998 0 2.12498C0 2.67497 0.225 3.17498 0.6 3.54998C0.975 3.92498 1.5 4.14998 2.00001 4.12499H2.05002C2.55003 4.12499 3.02502 3.92498 3.40002 3.54998C3.77502 3.17498 4.00002 2.67497 4.00002 2.12498C4.02501 1.59998 3.80001 1.09997 3.42501 0.724971C3.05001 0.32498 2.55 0.125 2.025 0.125ZM3.05001 3.2C2.775 3.47501 2.4 3.65 2.00001 3.62501C1.62501 3.62501 1.22502 3.47501 0.95001 3.2C0.65001 2.92499 0.50001 2.525 0.50001 2.12501C0.50001 1.72502 0.65001 1.35002 0.95001 1.05002C1.22502 0.77501 1.60002 0.62501 2.025 0.62501C2.4 0.62501 2.775 0.77501 3.05001 1.05002C3.35001 1.35002 3.50001 1.72502 3.50001 2.12501C3.50001 2.525 3.35001 2.92499 3.05001 3.2ZM3 4.625H0.975C0.57501 4.625 0.24999 4.94999 0.24999 5.375V14.125C0.24999 14.525 0.6 14.875 0.99999 14.875H3C3.39999 14.875 3.75 14.525 3.75 14.15V5.375C3.75 4.97498 3.39999 4.625 3 4.625ZM3.24999 14.15C3.24999 14.275 3.12498 14.375 3 14.375H0.99999C0.874981 14.375 0.75 14.25 0.75 14.125V5.375C0.75 5.24999 0.84999 5.12501 0.975 5.12501H3C3.12501 5.12501 3.24999 5.25002 3.24999 5.375V14.15ZM11.5 4.37498H10.975C9.99999 4.37498 9.075 4.79999 8.475 5.47499V5.12498C8.475 4.87499 8.22501 4.62497 7.97499 4.62497H5.475C5.25 4.62497 4.97499 4.82498 4.97499 5.09996V14.425C4.97499 14.7 5.25 14.875 5.475 14.875H8.22501C8.45001 14.875 8.72502 14.7 8.72502 14.425V9.02495C8.72502 8.19995 9.32502 7.54994 10.1 7.54994C10.5 7.54994 10.875 7.69994 11.15 7.97495C11.4 8.19995 11.5 8.54996 11.5 8.99996V14.375C11.5 14.625 11.75 14.875 12 14.875H14.5C14.75 14.875 15 14.625 15 14.375V7.92497C15 5.92499 13.475 4.37498 11.5 4.37498ZM14.5 14.35L14.475 14.375H12.025L12 8.99999C12 8.39999 11.85 7.94999 11.525 7.625C11.15 7.25 10.65 7.04999 10.125 7.04999C9.075 7.07498 8.25 7.925 8.25 9.02498V14.375H5.49999V5.12498H7.97499L7.99998 5.14997V6.72497L8.67498 6.04997L8.69997 6.02498C9.19998 5.32499 10.075 4.87499 11 4.87499H11.525C13.2 4.87499 14.5 6.22499 14.5 7.925V14.35Z" fill="black"/>
</g>
<defs>
<clipPath id="clip0_160_24">
<rect width="15" height="15" fill="white"/>
</clipPath>
</defs>
</svg>
