<svg width="17" height="17" viewBox="0 0 17 17" fill="none" xmlns="http://www.w3.org/2000/svg">
<g clip-path="url(#clip0_160_27)">
<path d="M11.1166 5.67766L7.36084 3.62272C7.14489 3.50455 6.88965 3.50897 6.67798 3.63438C6.46618 3.75992 6.33984 3.98172 6.33984 4.22788V8.30254C6.33984 8.54754 6.46542 8.76894 6.67579 8.89462C6.78563 8.96023 6.90742 8.9932 7.02947 8.9932C7.14368 8.99302 7.25604 8.96445 7.35646 8.91006L11.1123 6.89051C11.2217 6.8317 11.3132 6.74444 11.3771 6.63794C11.441 6.53144 11.475 6.40966 11.4754 6.28545C11.4759 6.1612 11.4429 6.03913 11.3797 5.93215C11.3165 5.82516 11.2256 5.73723 11.1166 5.67766ZM7.33607 7.78995V4.74462L10.1431 6.2805L7.33607 7.78995Z" fill="black"/>
<path d="M16.8749 3.03946L16.8741 3.03169C16.8597 2.89486 16.7164 1.67777 16.1247 1.0587C15.4408 0.330559 14.6654 0.242106 14.2926 0.199706C14.2644 0.196597 14.2362 0.193221 14.2081 0.189579L14.1784 0.186491C11.931 0.0230663 8.53692 0.000753905 8.50295 0.000621093L8.49997 0.000488281L8.49698 0.000621093C8.46301 0.000753905 5.0689 0.0230663 2.80124 0.186491L2.77129 0.189579C2.74715 0.192833 2.72055 0.195822 2.69163 0.199208C2.32305 0.241708 1.55599 0.330327 0.870151 1.08477C0.306596 1.69723 0.143703 2.88825 0.126968 3.02209L0.125042 3.03946C0.119962 3.0964 0 4.45191 0 5.81271V7.08478C0 8.4456 0.119962 9.80108 0.125042 9.85816L0.125939 9.86669C0.140349 10.0013 0.28352 11.1961 0.872475 11.8154C1.51555 12.5192 2.32863 12.6123 2.76598 12.6624C2.8351 12.6703 2.89464 12.677 2.93521 12.6842L2.97452 12.6896C4.27216 12.8131 8.34069 12.8739 8.51318 12.8764L8.51839 12.8765L8.52357 12.8764C8.55754 12.8762 11.9515 12.8539 14.199 12.6905L14.2286 12.6874C14.2571 12.6836 14.289 12.6803 14.324 12.6766C14.6905 12.6377 15.4534 12.5569 16.1298 11.8127C16.6933 11.2002 16.8564 10.0091 16.873 9.87539L16.8749 9.85803C16.88 9.80095 17.0001 8.44557 17.0001 7.08478V5.81271C16.9999 4.45188 16.88 3.09653 16.8749 3.03946ZM16.0037 7.08478C16.0037 8.3443 15.8937 9.64141 15.8833 9.76048C15.8411 10.0885 15.6692 10.842 15.3946 11.1405C14.9713 11.6062 14.5364 11.6524 14.2189 11.686C14.1835 11.6896 14.1482 11.6936 14.1128 11.6979C11.9391 11.8551 8.67312 11.8792 8.52268 11.8802C8.35394 11.8777 4.34491 11.8163 3.08685 11.6995C3.02237 11.689 2.95271 11.6809 2.87933 11.6726C2.50696 11.63 1.99723 11.5716 1.6053 11.1405L1.59607 11.1306C1.32629 10.8496 1.15938 10.1449 1.11695 9.76436C1.10905 9.67438 0.996223 8.36193 0.996223 7.08478V5.81271C0.996223 4.55464 1.10596 3.25893 1.11658 3.13741C1.16705 2.75102 1.34213 2.04314 1.6053 1.75699C2.04159 1.27711 2.50165 1.22395 2.80592 1.18879C2.83497 1.1854 2.86207 1.18232 2.8871 1.17906C5.09251 1.02108 8.38193 0.997607 8.49997 0.996711C8.618 0.997475 11.9063 1.02108 14.0921 1.17906C14.1189 1.18245 14.1482 1.1858 14.1797 1.18945C14.4927 1.22511 14.9657 1.27907 15.3998 1.74208L15.4038 1.74637C15.6736 2.02743 15.8406 2.74442 15.883 3.13259C15.8905 3.21756 16.0037 4.53283 16.0037 5.81271V7.08478Z" fill="black"/>
</g>
<defs>
<clipPath id="clip0_160_27">
<rect width="17" height="17" fill="white"/>
</clipPath>
</defs>
</svg>
