<svg width="26" height="26" viewBox="0 0 26 26" fill="none" xmlns="http://www.w3.org/2000/svg">
<path d="M9.03271 13H5.06543V9.82617C5.06543 8.07559 6.48868 6.65235 8.23926 6.65235H8.63596C8.79237 6.65272 8.94731 6.62219 9.09188 6.56251C9.23645 6.50283 9.36781 6.41517 9.4784 6.30458C9.589 6.19398 9.67665 6.06263 9.73634 5.91805C9.79602 5.77348 9.82655 5.61854 9.82617 5.46214V3.08182C9.82655 2.92541 9.79602 2.77047 9.73634 2.6259C9.67665 2.48133 9.589 2.34997 9.4784 2.23937C9.36781 2.12878 9.23645 2.04112 9.09188 1.98144C8.94731 1.92176 8.79237 1.89123 8.63596 1.8916H8.23926C3.85541 1.8916 0.304688 5.44233 0.304688 9.82617V21.728C0.304688 23.0422 1.37089 24.1084 2.68506 24.1084H9.03271C10.3469 24.1084 11.4131 23.0422 11.4131 21.728V15.3804C11.4131 14.0662 10.3469 13 9.03271 13ZM23.3149 13H19.3477V9.82617C19.3477 8.07559 20.7709 6.65235 22.5215 6.65235H22.9182C23.0746 6.65272 23.2295 6.62219 23.3741 6.56251C23.5187 6.50283 23.65 6.41517 23.7606 6.30458C23.8712 6.19398 23.9589 6.06263 24.0186 5.91805C24.0782 5.77348 24.1088 5.61854 24.1084 5.46214V3.08182C24.1088 2.92541 24.0782 2.77047 24.0186 2.6259C23.9589 2.48133 23.8712 2.34997 23.7606 2.23937C23.65 2.12878 23.5187 2.04112 23.3741 1.98144C23.2295 1.92176 23.0746 1.89123 22.9182 1.8916H22.5215C18.1376 1.8916 14.5869 5.44233 14.5869 9.82617V21.728C14.5869 23.0422 15.6531 24.1084 16.9673 24.1084H23.3149C24.6291 24.1084 25.6953 23.0422 25.6953 21.728V15.3804C25.6953 14.0662 24.6291 13 23.3149 13Z" fill="white"/>
</svg>
